<?xml version="1.0" standalone="no"?>
<!DOCTYPE svg PUBLIC "-//W3C//DTD SVG 20010904//EN"
 "http://www.w3.org/TR/2001/REC-SVG-20010904/DTD/svg10.dtd">
<svg version="1.0" xmlns="http://www.w3.org/2000/svg"
 width="500.000000pt" height="500.000000pt" viewBox="0 0 500.000000 500.000000"
 preserveAspectRatio="xMidYMid meet">

<g transform="translate(0.000000,500.000000) scale(0.100000,-0.100000)"
fill="#000000" stroke="none">
<path d="M2298 4535 c-59 -15 -104 -48 -127 -94 -27 -52 -30 -202 -5 -243 3
-4 7 -17 9 -28 7 -34 56 -138 74 -154 20 -18 31 -10 83 54 74 93 113 217 106
340 -7 122 -40 151 -140 125z"/>
<path d="M1876 4439 c-52 -41 -24 -158 67 -277 58 -74 83 -97 89 -80 16 48 -1
219 -29 290 -16 39 -64 88 -87 88 -8 0 -25 -9 -40 -21z"/>
<path d="M1594 4267 c-61 -49 -75 -65 -72 -84 4 -21 22 -43 36 -43 6 0 13 6
15 13 3 6 4 -3 2 -21 -2 -25 1 -32 12 -28 8 3 12 2 9 -2 -6 -10 72 -87 184
-183 41 -35 110 -100 152 -144 87 -89 91 -87 59 30 -46 166 -131 324 -229 427
-78 81 -103 87 -168 35z"/>
<path d="M1370 3938 c-14 -7 -27 -15 -30 -19 -3 -3 -17 -9 -31 -12 -46 -11
-41 -87 5 -87 8 0 19 -7 27 -16 7 -9 21 -13 33 -10 20 5 20 4 2 -9 -16 -12
-20 -12 -33 1 -8 7 -18 14 -23 14 -14 0 50 -59 84 -77 17 -10 37 -16 45 -14 7
1 10 -2 7 -7 -3 -6 1 -13 10 -16 24 -9 36 -7 28 6 -5 7 -3 8 5 4 7 -5 10 -11
6 -14 -18 -19 198 -66 364 -79 60 -4 83 -3 80 5 -9 25 -158 182 -222 233 -107
85 -148 102 -247 106 -53 2 -95 -2 -110 -9z m57 -200 c-3 -8 -6 -5 -6 6 -1 11
2 17 5 13 3 -3 4 -12 1 -19z"/>
<path d="M2493 3932 c-23 -3 -23 -6 -23 -147 0 -110 3 -146 13 -152 8 -4 33
-39 56 -78 105 -175 94 -304 -42 -504 -31 -44 -52 -81 -47 -81 5 0 12 5 15 10
4 6 9 8 13 6 4 -2 36 2 72 10 75 16 298 18 320 4 20 -14 -1 -31 -123 -105 -51
-30 -132 -84 -182 -118 l-90 -64 -3 -87 -3 -87 23 12 c13 7 41 27 63 44 22 18
54 39 70 48 17 8 53 30 82 49 l51 33 289 -2 c169 -1 300 -6 316 -12 24 -9 29
-7 43 15 23 35 42 170 49 359 6 138 5 163 -9 180 -16 20 -16 20 -34 -3 -10
-12 -31 -32 -47 -42 -28 -19 -49 -20 -360 -20 l-330 1 41 37 c23 20 45 51 49
67 10 42 6 565 -5 586 -5 9 -17 20 -27 25 -20 9 -204 21 -240 16z"/>
<path d="M867 3853 c-4 -3 -7 -11 -7 -18 0 -17 137 -95 155 -89 23 9 18 43 -8
53 -13 5 -41 21 -62 35 -37 26 -65 32 -78 19z"/>
<path d="M4005 3830 c-27 -17 -56 -34 -64 -39 -23 -12 -24 -29 -4 -39 24 -13
148 59 148 85 0 28 -26 25 -80 -7z"/>
<path d="M1143 3709 c-19 -24 -54 -99 -46 -99 5 0 3 -4 -3 -8 -6 -4 -15 -26
-21 -50 -12 -46 -2 -62 24 -40 14 11 16 11 11 -2 -7 -19 -5 -19 127 -25 101
-5 205 10 212 30 4 12 -83 104 -150 159 -37 30 -59 40 -95 44 -33 3 -51 0 -59
-9z"/>
<path d="M3105 3525 c-53 -14 -136 -57 -155 -79 -17 -21 -1 -26 110 -33 78 -5
114 -2 163 11 73 20 123 55 114 79 -13 35 -139 47 -232 22z"/>
<path d="M1845 3500 c2 -10 13 -28 25 -40 11 -11 18 -25 15 -30 -4 -6 18 -10
54 -10 34 0 61 4 61 8 0 19 -90 75 -137 85 -16 4 -21 1 -18 -13z"/>
<path d="M777 3453 c-4 -3 -7 -17 -7 -30 0 -24 -4 -27 -53 -38 -41 -8 -32 -39
13 -45 31 -4 35 -9 38 -37 2 -18 7 -34 13 -34 29 -5 34 -1 39 31 5 32 8 35 45
40 26 3 40 10 40 20 0 13 -18 22 -72 36 -7 2 -13 17 -13 34 0 22 -5 30 -18 30
-10 0 -22 -3 -25 -7z"/>
<path d="M4140 3426 c0 -33 -2 -35 -37 -38 -30 -2 -38 -7 -38 -23 0 -15 8 -21
35 -25 31 -4 36 -9 40 -40 4 -27 10 -35 25 -35 15 0 21 8 25 35 4 31 9 36 40
40 32 5 36 10 32 39 -1 6 -16 11 -34 13 -27 2 -33 8 -40 36 -6 22 -14 32 -28
32 -16 0 -20 -7 -20 -34z"/>
<path d="M2332 3370 c0 -19 2 -27 5 -17 2 9 2 25 0 35 -3 9 -5 1 -5 -18z"/>
<path d="M2317 3300 c-4 -19 -17 -49 -30 -67 l-22 -33 -313 0 -313 0 7 -47 c9
-62 14 -67 14 -15 0 23 2 42 5 42 2 0 22 -7 44 -16 37 -15 39 -17 29 -40 -10
-20 -8 -27 8 -39 18 -14 18 -14 -2 -9 -14 4 -23 0 -27 -10 -7 -18 -37 -22 -37
-5 0 5 -4 8 -9 5 -5 -4 -12 0 -14 6 -3 7 -6 -24 -6 -69 l-1 -83 -50 0 c-49 0
-50 -1 -50 -29 0 -33 -13 -47 -27 -28 -13 17 -10 36 7 47 8 5 11 10 5 10 -33
0 -40 -20 -43 -125 -3 -69 0 -111 7 -118 7 -7 25 -1 62 22 l52 32 241 -5 c133
-2 273 -2 311 2 62 6 70 9 68 27 -1 11 -4 40 -6 65 -3 38 13 148 27 185 2 5 4
14 4 19 0 5 6 13 14 18 9 7 7 8 -10 5 -12 -3 -20 -1 -16 4 3 5 13 9 22 9 16 1
16 1 0 11 -10 5 -18 17 -18 26 0 15 2 14 13 -2 13 -17 15 -16 24 11 11 32 11
73 0 90 -4 7 0 17 8 24 9 8 15 8 15 2 0 -6 -4 -12 -9 -14 -5 -1 -3 -12 6 -23
14 -19 15 -19 11 5 -2 16 2 24 9 23 7 -2 10 4 7 12 -4 8 -10 12 -15 9 -13 -7
-11 10 2 23 6 6 9 26 7 44 l-3 34 -8 -35z m-37 -120 c0 -5 -5 -10 -11 -10 -5
0 -7 5 -4 10 3 6 8 10 11 10 2 0 4 -4 4 -10z m-461 -24 c-12 -10 -59 -15 -59
-6 0 5 14 10 32 10 17 0 29 -2 27 -4z m126 -36 c3 -5 -1 -10 -9 -10 -9 0 -16
5 -16 10 0 6 4 10 9 10 6 0 13 -4 16 -10z m-90 -10 c-28 -12 -37 -12 -30 0 3
6 16 10 28 9 21 0 21 -1 2 -9z m-68 -6 c-3 -3 -12 -4 -19 -1 -8 3 -5 6 6 6 11
1 17 -2 13 -5z m20 -30 c-3 -3 -12 -4 -19 -1 -8 3 -5 6 6 6 11 1 17 -2 13 -5z
m140 0 c-3 -3 -12 -4 -19 -1 -8 3 -5 6 6 6 11 1 17 -2 13 -5z m-429 -229 c-3
-3 -9 2 -12 12 -6 14 -5 15 5 6 7 -7 10 -15 7 -18z"/>
<path d="M2345 3287 c-4 -10 -5 -21 -1 -24 10 -10 18 4 13 24 -4 17 -4 17 -12
0z"/>
<path d="M2340 3236 c0 -2 8 -10 18 -17 15 -13 16 -12 3 4 -13 16 -21 21 -21
13z"/>
<path d="M2720 2538 c-25 -19 -81 -58 -125 -88 -137 -92 -135 -88 -133 -288 1
-152 2 -160 20 -157 47 10 239 202 269 271 22 48 34 218 20 271 l-7 25 -44
-34z"/>
<path d="M1075 2439 c8 -23 35 -82 59 -133 150 -306 410 -564 719 -711 161
-77 328 -127 471 -141 l69 -7 -34 63 c-22 41 -70 99 -134 164 -109 110 -161
142 -345 213 -195 74 -301 172 -394 363 -45 92 -38 104 41 64 40 -20 91 -62
163 -135 101 -102 119 -114 235 -164 206 -89 296 -146 390 -248 36 -38 65 -73
65 -78 0 -5 5 -9 10 -9 6 0 10 34 10 83 0 75 -3 88 -29 128 -16 24 -74 88
-129 142 -158 155 -181 198 -182 339 0 76 -3 89 -19 98 -13 6 -188 10 -500 10
l-480 0 14 -41z"/>
<path d="M2878 2373 c-6 -148 -18 -169 -174 -332 -71 -73 -137 -147 -146 -165
-13 -23 -17 -55 -17 -121 0 -87 1 -89 17 -65 9 14 48 57 87 96 77 77 202 158
324 209 171 71 192 85 296 191 119 121 225 187 225 139 0 -26 -63 -149 -106
-205 -91 -121 -160 -169 -354 -244 -110 -44 -152 -65 -213 -105 -53 -37 -158
-141 -197 -196 -29 -42 -70 -112 -70 -120 0 -21 217 18 361 65 410 134 727
411 919 805 27 55 52 112 56 128 l6 27 -505 0 -505 0 -4 -107z"/>
<path d="M935 2174 c-65 -39 -76 -50 -68 -71 7 -19 13 -17 92 29 48 27 71 46
69 57 -5 26 -30 22 -93 -15z"/>
<path d="M3927 2203 c-17 -17 -2 -34 64 -72 39 -23 77 -41 85 -41 28 0 14 38
-23 62 -90 59 -110 67 -126 51z"/>
</g>
</svg>
