<?xml version="1.0" encoding="UTF-8"?>
<svg version="1.1" viewBox="0 0 1600 1600" width="1280" height="1280" xmlns="http://www.w3.org/2000/svg">
<path transform="translate(718,339)" d="m0 0h140l10 2 11 6 7 8 4 12-1 163-2 13-2 5 16-12 5-4h356l2 5 3 21 5 40 1 15v68l-3 25-4 30-7 33-5 18-11 35-10 24-11 23-13 23-11 18-13 19-8 11-16 21-7 8-9 10-7 8-10 11h-2v2l-8 7-7 7-11 9-9 8-19 14-17 12-19 12-14 8-25 13-18 8-30 12-46 14-29 7-31 5-16 2h-13l1-5 9-19 10-15 10-13 9-11 12-14 7-7 11-9 12-10 24-16 33-15 25-9 24-10 25-12 11-8 12-9 9-9 5-4 14-16 13-18 8-14 8-16 8-19 2-8-12 4-16 8-14 9-4 4h-2v2l-5 4-9 11-11 12-7 8-7 7-14 11-13 8-16 8-11 5-28 12-26 12-21 12-27 18-22 18-12 13-8 9-15 20-2 3-3-1v-59l8-16 8-11 10-11 7-8 31-31 6-5 7-8 9-9 11-16 7-18 3-15 1-10 1-88 1-1h101l55-1 10-2 10-6 6-9 3-8 1-7 1-49 4-3 20-7 15-6 19-8 6-3-3-2-30-13-31-12-3-2-1 41-4 30-3 19-4 13-5 9h-6l-17-8h-180l-8 4-27 18-15 9-15 10-17 13-6 4-5 4-7 8-7 6-7 8-12 15-9 13-10 18-7 17-6 18-3 8-4-2-10-10-8-11-5-11-5-19-2-19v-62l2-2 21-7 27-12 12-6 19-10 24-14 19-11 10-6 15-8 8-5 19-11 19-10 14-7 22-15 1-2-19-2h-64l-21 3-29 7-21 9-6 3h-3l2-6 9-13 9-11 14-19 7-9 10-16 8-16 5-13 5-23 1-9v-13l-4-20-5-14-7-13-12-17-8-10-2-1-1 11-1 47-2 14-6 21-7 17-12 22-13 22-9 16-14 28-8 22-4 18v31l2 8v10l-3 2-33 1h-37l-99-1-14-1-13 3-15 8-14 10-4 1v2l5 5 4 3 6 2 7 1 153 1 1 1 1 78 1 21 5 19 8 17 13 17 16 17 19 19 8 7 7 7 7 8 7 7 9 11 6 11 2 6 1 16-1 45-5-4-14-19-9-10-11-11v-2l-4-2-7-7-17-13-20-13-27-14-19-9-24-10-27-12-14-8-13-11-20-20-9-11-17-17-8-7-16-9-16-7-5-1 4 11 11 24 8 15 15 22 9 11 9 10 13 12 18 13 14 8 10 5 29 12 20 7 25 11 16 9 16 11 10 8 15 13 7 7 7 8 9 10 11 14 7 10 9 15 7 15v3l-5 1-21-1-12-2-27-5-35-9-33-11-37-15-15-8-16-8-15-9-16-10-16-11-19-14-13-11-16-14-30-30-9-11-9-10-20-26-12-18-11-17-12-21-8-16-11-24-9-24-6-18-8-28-7-33-6-46-1-16v-66l3-31 4-28 3-13 2-2h349l11 8 5 4 1-180 5-10 6-7 12-7zm73 1 1 2zm93 208m-410 78-31 12-29 13-4 2v2l17 7 28 11 15 6 6 2 1-55z" fill="#FA4206"/>
<path transform="translate(906,532)" d="m0 0h356l2 5 3 21 5 40 1 15v68l-3 25-4 30-7 33-5 18-11 35-10 24-11 23-13 23-11 18-13 19-8 11-16 21-7 8-9 10-7 8-10 11h-2v2l-8 7-7 7-11 9-9 8-19 14-17 12-19 12-14 8-25 13-18 8-30 12-46 14-29 7-31 5-16 2h-13l1-5 9-19 10-15 10-13 9-11 12-14 7-7 11-9 12-10 24-16 33-15 25-9 24-10 25-12 11-8 12-9 9-9 5-4 14-16 13-18 8-14 8-16 8-19 2-8-12 4-16 8-14 9-4 4h-2v2l-5 4-9 11-11 12-7 8-7 7-14 11-13 8-16 8-11 5-28 12-26 12-21 12-27 18-22 18-12 13-8 9-15 20-2 3-3-1v-59l8-16 8-11 10-11 7-8 31-31 6-5 7-8 9-9 11-16 7-18 3-15 1-10 1-88 1-1h101l55-1 10-2 10-6 6-9 3-8 1-7 1-49 4-3 20-7 15-6 19-8 6-3-3-2-30-13-31-12-1-1v-27l-1-32-4-13-3-5-2-1-2 4-11 12-13 8-10 3h-201l2-4 12-11h2v-2l8-7 1-3 16-12z" fill="#E12A08"/>
<path transform="translate(791,339)" d="m0 0h67l10 2 11 6 7 8 4 12-1 163-2 13-2 6-2 4-5 5h-2v2l-11 9-5 6 201-1 10-3 14-9 11-12 1-2 4 2 5 12 1 5 1 32v15l-1 11h-2l-1 41-4 30-3 19-4 13-5 9h-6l-17-8h-180l-8 4-27 18-15 9-15 10-17 13-6 4-5 4-7 8-7 6-7 8-12 15-9 13-10 18-7 17-6 18-3 8-4-2-10-10-8-11-5-11-5-19-2-19v-62l2-2 21-7 27-12 12-6 19-10 24-14 19-11 10-6 15-8 8-5 19-11 19-10 14-7 22-15 1-2-19-2h-64l-21 3-29 7-21 9-6 3h-3l2-6 9-13 9-11 14-19 7-9 10-16 8-16 5-13 5-23 1-9v-13l-4-20-5-14-7-13-12-17-8-10-2-1-1 11-1 47-2 14-6 21-7 17-12 22-13 22-9 16-14 28-8 22-4 18v31l2 8v10l-3 2-33 1h-37l-99-1-14-1-13 3-15 8-14 10-7 1-3-4-2-6-1-7v-50h2l-1-2v-45l1-10h-2v-46l1-20 3-5 3-3 4 1 8 9 18 12 2 1 32 1 176-1 9-12 7-17 4-17 1-10 1-34 1-93 1-1 42-1 1-2v-47zm0 1 1 2z" fill="#039435"/>
<path transform="translate(718,339)" d="m0 0h72v48l-2 3-42 1-1 93-1 34-2 15-5 18-7 14-8 10-187 1-21-1-16-10-10-9-3-4-4 1-3 3-1 3-1 20-1 46 2 1-34 13-29 13-3 1-1 2 9 3 34 13 19 8 5 1v2h-2l1 50 2 10 3 6 5 4 5 6 8 3 7 1 153 1 1 1v53h-1l-1-9-26-1h-295l-5-16-7-24-7-33-6-46-1-16v-66l3-31 4-28 3-13 2-2h349l11 8 5 4 1-180 5-10 6-7 12-7z" fill="#FABE10"/>
<path transform="translate(906,532)" d="m0 0h356l2 5 3 21 5 40 1 15v68l-3 25-4 30-7 33-5 18-6 19-1 1h-326v5h-1v-48l1-1h101l55-1 10-2 10-6 6-9 3-8 1-7 1-49 4-3 20-7 15-6 19-8 6-3-3-2-30-13-31-12-1-1v-27l-1-32-4-13-3-5-2-1-2 4-11 12-13 8-10 3h-201l2-4 12-11h2v-2l8-7 1-3 16-12z" fill="#FABD0F"/>
<path transform="translate(782,467)" d="m0 0 2 2 1 14h2l1 6v17l-6 24-8 19-12 22-13 22-9 16-14 28-8 22-4 18v31l2 8v10l-3 2-33 1h-37l-99-1-14-1-13 3-15 8-14 10-7 1-3-4-2-6-1-7v-50h2l-1-2v-45l1-10h-2v-46l1-20 3-5 3-3 4 1 8 9 18 12 2 1 32 1 176-1 9-12 7-17 4-17 1-10h2v-23l2-23 7-1 2 1 2-1h9l1 4 3-2h3l3-3 4-1z" fill="#039435"/>
<path transform="translate(955,806)" d="m0 0h287v2l-62 1h-35l5 1 18 1v3l-3 3-7 2-5 5-2 1-2-1v2h-2v10h-2l-1 4-4 7-9 2-1 3-13 1 1 4-3 2 1-7-12 4-16 8-14 9-4 4h-2v2l-5 4-9 11-11 12-7 8-7 7-14 11-13 8-16 8-11 5-28 12-26 12-21 12-27 18-22 18-12 13-8 9-15 20-2 3-3-1v-59l8-16 8-11 10-11 7-8 31-31 6-5 7-8 9-9 11-16 7-18 3-15 1-10 1-40 1-5z" fill="#FA4206"/>
<path transform="translate(718,339)" d="m0 0h72v48l-2 3-42 1-1 93-1 34-2 15-5 18-7 14-8 10-187 1-21-1-16-10-10-9-4-5 2-4 9-8 10-6 90-1h77l11 8 5 4 1-180 5-10 6-7 12-7z" fill="#C8F1A6"/>
<path transform="translate(1097,548)" d="m0 0 4 2 5 12 1 5 1 32v15l-1 11h-2l-1 41-4 30-3 19-4 13-5 9h-6l-17-8h-168l-9-1 2-3 1-5h2l1-7 6-10 8-11 5-8 5-9 7-6 17-5 35-4 21-2 10-2 16-8 11-4 11-2 4-1 2-11 1-28v-25l2-2 14-3 12-7 10-9z" fill="#035E53"/>
<path transform="translate(1097,333)" d="m0 0h16l15 2 21 6 17 9 6 5 3 6v7l-3 7-9 12-12 12-12 9-11 7-19 10-19 7-19 5-33 6-29 4-20 2-31 3h-7l-1-3 7-9 11-14 9-11 9-10 7-8 3-1 2-4 21-21 13-10 9-7 13-8 15-7 17-5z" fill="#FBBE10"/>
<path transform="translate(465,333)" d="m0 0h15l13 2 15 4 24 12 19 14 15 14 8 7 5 4 7 8 12 13 9 11 13 15 6 8 2 5-4 1h-9l-54-6-46-7-21-5-25-9-20-10-11-8-10-8-10-9-7-7-7-11-2-5 1-7 4-6 8-6 15-7 15-5 5-1z" fill="#039436"/>
<path transform="translate(685,645)" d="m0 0h25l9 3 1 5-4 14-2 10v31l2 8v10l-3 2-33 1h-37l-99-1-14-1h-9l3-9 2-12 1-14 1-31 3-2 6-1 9-2 16-1 6-1 2 1v-2l6-1 17-1 19-2 44-1 23-2z" fill="#035E53"/>
<path transform="translate(884,776)" d="m0 0h4v72l-3 16-7 16-8 12-8 10-8 7-16 16-8 7-13 12-13 11-10 9-2-4-2 6-4-1-12-11-11-9-7-7-8-7-2-3v-13l3-12 5-14 9-14 9-12 11-12 7-7 8-7 17-13 45-30 10-8zm-91 177 1 2z" fill="#04484D"/>
<path transform="translate(747,144)" d="m0 0h10l9 2 8 7 5 10 3 15v31l-2 18-6 23-7 17-8 16-9 13-8 10-8 9-8 5-6-1-7-8-10-17-8-19-8-26-3-16v-28l3-16 8-17 4-6h2l2-4 10-7 12-6 14-4z" fill="#029436"/>
<path transform="translate(820,145)" d="m0 0h20l15 4 12 6 13 11 7 10 7 17 2 9v35l-3 15-6 20-7 18-7 13-8 11-6 5-7-1-11-9-10-12-10-15-8-16-8-22-5-25-2-21v-11l4-22 4-10 5-6z" fill="#FABE10"/>
<path transform="translate(1044,220)" d="m0 0 8 1 10 6 18 14 11 10 5 4 2 4v6l-7 9-9 11-25 25-11 9-14 13-9 7-14 12-8 7-10 9-5 5-12 11-18 18-7 8-10 11-7 8-2 1 2-14 7-30 5-16 6-19 6-16 8-19 7-14 7-13 10-16 15-20 8-8 5-6 14-11z" fill="#FABE10"/>
<path transform="translate(527,220)" d="m0 0h8l9 4 14 12 19 19 8 10 13 20 13 24 6 14 7 16 10 27 11 40 2 17h-3l-11-12-9-10-14-16-8-7-12-12-11-9-14-12-13-11-15-13-12-11-13-12-18-18-10-13-3-5 2-6 9-10 14-12 16-12z" fill="#029436"/>
<path transform="translate(830,697)" d="m0 0h8l-1 3-12 7-15 10-10 8-9 8-1 15v46l-15 15-10 11-9 12-9 14-9 17-7 19-6 19h-4l-11-11-8-11-5-11-5-19-2-19v-62l2-2 21-7 27-12 12-6 19-10 24-14 19-11 10-6z" fill="#66BE15"/>
<path transform="translate(1045,577)" d="m0 0h8l1 1v26l-1 26-1 8-4 4-6 2-14 3-22 11-15 2-25 2-24 3-17 5-6 5-5 9-5 8-8 11-6 10-2 7h-2v5l-3 3-9 4-29 19-15 9-15 10-17 13-6 4-5 4-1 2h-2v-45l1-15 13-12 17-12 15-9h2v-2h-5v-2l13-8 18-10 8-5 28-14 21-14h28l26-3h8l42-6 12-2h2l2-6 3-1 1-4 4-10 2-10v-12l-4-12z" fill="#02794E"/>
<path transform="translate(1097,548)" d="m0 0 4 2 5 12 1 5 1 32v15l-1 11h-2l-1 41-4 30-3 19-4 13-5 9h-6l-17-8-110-1v-4h3l7-4 1-1h9l3-4 3-2h2l1-3h7l14-6 13-7 3-4h3l1-3 5-1 2-5 5-3h2l2-4h2v-2l5-3 5-10 2-9 7-11 6-4h2l2-7h2v-2h2l3-13 4-13 3-6 2-17v-5l-7 1-2-2 2-9 10-9z" fill="#055351"/>
<path transform="translate(906,532)" d="m0 0h181v1h-11v2l14 7 5 4 1 5-12 13-13 8-10 3h-201l2-4 12-11h2v-2l8-7 1-3 16-12z" fill="#E4FEC0"/>
<path transform="translate(690,512)" d="m0 0h1v34l11 12 2 1v2l4 2 8 7 1 3-3 1h-198l-7-2-12-8-9-8-4-5 2-4 9-8 10-6 90-1h77l11 8 5 4 1-31z" fill="#E4FEC0"/>
<path transform="translate(1046,1180)" d="m0 0h22l6 2v44l42-1 1-44 3-1 26 1v118l-1 1h-28l-1-49-42 1v19l-1 29h-28l-1-1v-118z" fill="#FDFDFD"/>
<path transform="translate(635,1212)" d="m0 0h15l10 6 5 7 7-6 8-5 6-2h14l10 5 8 9 4 9 1 6v58l-1 1h-25l-1-51-4-8-6-3-9 1-6 9-1 4-1 48h-25l-1-5v-32l-1-14-4-8-2-2-9-1-5 3-4 5-1 4-1 50h-27v-86l1-1h25l1 4-1 7 10-7z" fill="#FDFDFD"/>
<path transform="translate(1117,807)" d="m0 0h122v1l-59 1h-35l5 1 18 1v3l-3 3-7 2-5 5-2 1-2-1v2h-2v10h-2l-1 4-4 7-9 2-1 3-13 1 1 4-3 2 1-7-7 1v-2l-6-1-11 4-11 8h-2l-1 2-4 2-1 2h-3v2l-5 3-3 4h-2v3l-6 5-3 1-1 5-6 8-3 3h-2l-2 4-4 5-7 5h-2v3l-6 4h-2l-2 5-6 2-5 2v2l-15 6-8 3-8 4h-7l-5 4-10 2-1-1-3 3h-7l-3-2 5-7 4-1 4-4 8-3 1-3 11-6 5-4 1-2 8-4 8-7 9-4 4-5 2-5 4-2 2-4 4-6 4-7 3-7 3-1 4-7 2-2h6l2-3-2-4 7 1 4-6-1-9 1-5 4-6 6-3 1-2 11-4 7-1 2-4h2v-4l2-1-15-2v-1z" fill="#F13507"/>
<path transform="translate(1199,404)" d="m0 0 9 1 8 4 8 9 10 21 12 32v6l-5 5-14 5-12 2-16 1h-21l-29-2-28-7-9-5 2-4 6-8 16-17 9-10 12-11 12-9 10-6 16-6z" fill="#FBBE10"/>
<path transform="translate(374,405)" d="m0 0h9l15 5 11 6 13 11 11 9 18 18 9 11 6 8 1 6-9 3-28 6-19 2h-28l-22-2-16-4-6-4-1-1v-12l5-15 9-21 10-19 6-5z" fill="#039436"/>
<path transform="translate(718,339)" d="m0 0h70v47l-2 2h-39l-4 2-1 5v21l-5 3-1 2h-2v2l-5 3-4 2-3 2-3 5-5 3-8 1-5-2-2 6-2 3-5 32-1 24-2 1v-139l5-10 6-7 12-7z" fill="#E5FEC1"/>
<path transform="translate(1269,1176)" d="m0 0h28l1 46 10-7 10-4 11 1 12 5 9 8 7 12 3 10v19l-5 12-7 11-9 7-16 5h-10l-10-4-7-6v7l-2 2h-24l-1-2zm42 58-9 5-4 5-1 2v22l3 6 7 4 7 1 9-3 6-5 4-9v-13l-4-8-6-5-5-2z" fill="#FDFDFD"/>
<path transform="translate(219,1180)" d="m0 0h45l19 3 10 6 8 9 5 13 1 5v12l-4 13-4 7-5 5-8 6-11 3-15 2h-12v35l-1 1h-27l-1-1zm29 23v37h17l7-3 5-6 1-3v-13l-5-8-8-4z" fill="#FDFDFD"/>
<path transform="translate(685,645)" d="m0 0h25l9 3 1 5-4 14-2 10-2-1-2-7-9-3-25 1-16 4-14 2-12 3-13 4-9 5-6 2-6 4-7 2-3 3-13 4-7 2-20 4-12 5-3 1-2 3 1 8 1 3 4 1h-18l3-9 2-12 1-14 1-31 3-2 6-1 9-2 16-1 6-1 2 1v-2l6-1 17-1 19-2 44-1 23-2z" fill="#036D53"/>
<path transform="translate(320,1176)" d="m0 0h25l2 1 1 46 9-7 8-4 10-1 10 3 9 6 7 10 2 8v62h-26l-1-1-1-51-3-7-5-3h-10l-6 3-3 6-1 52-1 1h-26l-1-6v-117z" fill="#FDFDFD"/>
<path transform="translate(827,816)" d="m0 0 2 1-2 2-1 13 2 8-2 13-3 9h-2l-1 7-7 14-7 24-3 1-2 14-1 11v15l2 5 2 2-10 9-2-4-2 6-4-1-12-11-11-9-7-7-8-7-2-3v-13l3-12 5-14 9-14 9-12 11-12 7-7 8-7 17-13zm-34 137 1 2z" fill="#045E54"/>
<path transform="translate(887,382)" d="m0 0h1l1 16v132l-2 13-2 6-2 4-5 5h-2v2l-7 6-6 1-5-1v-2l-4-2v-3h-2v-2h-3l-2-12v-20l2-5 2-12 1-14 2-14 1-4v-49l-1-5v-20l2-5 6-4 20-5 4-4z" fill="#02794D"/>
<path transform="translate(909,1214)" d="m0 0h29l6 20 9 28 2 4 6-19 6-20 4-12 1-1h26l-1 8-10 28-7 20-8 20-7 19-6 11-5 6-8 6-8 2h-11l-9-2-6-4 1-6 5-11 5 1h7l6-4 3-7-2-10-5-12-8-21-10-26-5-16z" fill="#FDFDFD"/>
<path transform="translate(609,171)" d="m0 0 10 1 10 6 7 8 8 16 4 12 4 22 1 11v41l-2 13-5-2-12-12-7-8-12-15-9-13-9-16-6-16-2-9v-19l4-9 5-5 8-5z" fill="#039436"/>
<path transform="translate(1167,1214)" d="m0 0h28l1 50 2 8 4 3h11l6-4 4-6 1-51h27l1 85-1 1h-24l-2-1-1-7-10 6-10 3h-10l-12-5-6-5-6-10-3-11z" fill="#FDFDFD"/>
<path transform="translate(958,173)" d="m0 0h13l7 3 7 8 3 8v21l-6 20-9 16-12 17-12 14-7 8-13 12h-2l-1-2-2-25v-27l2-18 6-20 6-16 8-11 7-6z" fill="#FABE10"/>
<path transform="translate(482,551)" d="m0 0 4 1 8 9 18 12 2 1 21 1v1h-12l1 2 2 29 1 35v13l-1 12-2-1-17-1h-22l-3-1-3 2-1 10h-1l-1-12v-29l1-10h-2v-46l1-20 3-5z" fill="#64BE14"/>
<path transform="translate(448,1212)" d="m0 0h22l13 5 8 7 4 5 3 10v60l-1 1h-17l-5-5-3-4-9 6-10 3h-12l-10-3-8-7-5-8-1-3v-11l5-10 7-6 8-4 4-1h31l-5-10-7-3h-10l-8 2-6 2-4-9-5-9v-2l16-5zm6 48-8 4-3 5 1 6 4 5 2 1h9l9-6 3-4-1-5-4-4-7-2z" fill="#FDFDFD"/>
<path transform="translate(765,1212)" d="m0 0h22l12 5 5 4 6 7 3 10 1 8 1 53-1 1h-17l-9-9-6 5-13 4h-13l-9-3-7-6-5-10-1-3v-7l4-10 7-8 12-6h32l-5-9-3-3-3-1h-11l-9 3-4 1-8-16 1-5 9-3zm9 48-8 2-5 5-1 6 4 6 3 2h8l10-6 3-3v-5l-6-6z" fill="#FDFDFD"/>
<path transform="translate(541,466)" d="m0 0h31l17 3 19 7 23 13 13 13v3l-14 3-15 2-21 1h-14l-15-1-20-5-13-5-10-6-9-8-3-6 1-5 5-3 12-4z" fill="#42B722"/>
<path transform="translate(1011,466)" d="m0 0h29l18 4 12 6 1 5-4 6-8 8-12 6-18 6-16 3h-49l-25-5-3-1 2-5 16-13 13-7 10-5 15-5z" fill="#039436"/>
<path transform="translate(861,793)" d="m0 0 2 1-8 9h-2l-1 10 4 9 1 12-5 25-1 12-5 12-7 13-6 10v6l-1 7 3 8-8 8-8 7-9 8-5 4-4-1-2-5v-20l3-17 1-3 2-1 7-24 8-16 1-5h2v-5l3-8 1-11-2-6 1-13 5-6 22-14z" fill="#055351"/>
<path transform="translate(1098,550)" d="m0 0h3l5 12 1 5 1 32v15l-1 11h-2l-1 41-4 30-3 19-4 13-5 9h-6l-17-8-1-1-12-1v-18l2-15 2-10 4-12 6-7h2v-2l5-5 10-9 9-7 5-4 2-4v-36l2-25-1-13-3-5v-4z" fill="#04484D"/>
<path transform="translate(1061,574)" d="m0 0 3 1-3 4 2 7-1 13h-2v7l-2 12-3 12-4 23-3 7-6 2-37 3-14 2-15 5-6 3-5 5h-2l-2 5-4 4-2 4-12 9-15 10-5 4h-2l-2 4-8 6-1 2h88v1h-101l-9-1 2-3 1-5h2l1-7 6-10 8-11 5-8 5-9 7-6 17-5 35-4 21-2 10-2 16-8 11-4 11-2 4-1 2-11 1-28v-25l2-2z" fill="#056E52"/>
<path transform="translate(868,1211)" d="m0 0 15 1 16 6 5 5-1 4-8 12-2 1-10-5h-15l-8 6-5 10v11l6 11 8 4h11l12-4 4 1 5 10 2 3-1 4-7 5-16 5h-17l-13-5-8-6-6-7-5-11-3-9v-14l6-16 6-9 7-6 11-5z" fill="#FDFDFD"/>
<path transform="translate(789,387)" d="m0 0 1 3-1 2 1 58-1 47h-1l-1-14h-2l-1-3-1-11-7 2-2 3h-2l-4 1-2-3h-8l-3 1-5-1h-3v13l-1 10v18l-1 5h-1v-34l1-93 1-1 42-1z" fill="#42B720"/>
<path transform="translate(887,665)" d="m0 0 2 1-1 3-5 3-5 1-8 7-14 9-2 3h-2l-1 3h-2l-1 3-3 3h-2l4 7-3 4 1 2-1 5v14h2l1 7 1 2-1 2 5 1-1 3h-2l1 3-15 9-15 10-17 13-6 4-5 4-1 2h-2v-45l1-15 13-12 17-12 15-9h2v-2h-5v-2l13-8 18-10 8-5z" fill="#039436"/>
<path transform="translate(561,1212)" d="m0 0h16l-1 7-4 16-2 3-14 3-4 3h-2l-2 4-3 7-1 5-1 40h-26l-1-1v-84l1-1h25v11l5-5 9-6z" fill="#FDFDFD"/>
<path transform="translate(780,854)" d="m0 0 3 3 2 7 3 4 1 90-1 3h-7l-7-7-11-9-7-7-8-7-2-3v-13l3-12 5-14 9-14 9-12z" fill="#65BE15"/>
<path transform="translate(594,283)" d="m0 0h3l14 26 6 14 7 16 10 27 11 40 2 17h-3l-11-12-9-10-14-16-8-7-9-9-1-5 3-5 1-2v-35l-1-12v-9l-2-10-1-6z" fill="#047A4D"/>
<path transform="translate(685,645)" d="m0 0h25l9 3 1 5-3 10-5 1-40-1h-62l-35 1-20 1-15 4-5 2v2l-5 4-2 2v-18l3-2 6-1 9-2 16-1 6-1 2 1v-2l6-1 17-1 19-2 44-1 23-2z" fill="#018149"/>
<path transform="translate(564,379)" d="m0 0 5 2 20 20 7 8 13 15 11 13 6 8 2 5-4 1h-9l-36-4-11-3-1-3-2-1-1-3-3-1v-2h-2v-2l-2-1v-2l4-1v-4h-2l1-7 2-9 1-13-2-5v-10z" fill="#028149"/>
<path transform="translate(765,147)" d="m0 0 4 1 7 8 4 10 2 12v31l-2 18-6 23-7 17-8 16-8 12h-6l-1-6 2-9 1-9 5-14h2l1-11 6-34 3-26v-15h-2l-1-13 4-10z" fill="#018148"/>
<path transform="translate(1326,491)" d="m0 0h12l4 5 1 5v13h11l11 1 2 3v11l-1 3-3 1-19 1-1 17-3 5-4 2h-9l-4-4v-20h-13l-10-1-3-3v-11l5-5h20v-21z" fill="#E12A08"/>
<path transform="translate(887,382)" d="m0 0 1 4-4 4-12 6-5 4-2 5 1 18v47l-1 9v10l-1 15-2 17 1 16 2 6v6h2l1 4h2l2 6-2 3 2 1-3 3-6 1-5-1v-2l-4-2v-3h-2v-2h-3l-2-12v-20l2-5 2-12 1-14 2-14 1-4v-49l-1-5v-20l2-5 6-4 20-5 4-4z" fill="#018148"/>
<path transform="translate(250,760)" d="m0 0h7l7 2 1 2v19h15l7 1 3 5v8l-3 5-4 1h-18v20l-4 3-8 1-5-2-2-6v-16l-22-1-3-4-1-8 3-6 2-1h21v-19z" fill="#FBBE10"/>
<path transform="translate(253,490)" d="m0 0h6l4 4 1 2 1 10v9h15l8 1 3 5v6l-5 6-21 1v16l-3 6-3 2h-8l-5-5v-19l-23-1-4-5v-8l4-5 2-1h19l1-17 4-5z" fill="#066F53"/>
<path transform="translate(1328,760)" d="m0 0h8l5 3 2 7v8l-1 5 22 1 2 2v14l-2 2-21 1-1 19-2 3-3 1h-10l-3-3-1-3v-11l1-6h-19l-5-2-3-5 1-9 2-3 7-1h16v-17l2-5z" fill="#FBBE10"/>
<path transform="translate(881,670)" d="m0 0m-2 1h2v2l2 1-5 5-1 2 4 2v12l1 2-10 24 1 3 2 2 4 5-5 4-22 15h-3v-2l2-1v-2l-4-1-1-4v-7h-2l-1-6v-11l1-3v-3h2l-1-4-2-5h2l1-3 5-4 5-6 11-7 9-7z" fill="#018148"/>
<path transform="translate(719,954)" d="m0 0h2v2l5 1 8 5 14 15 11 12 7 11 3 9 1 16-1 45-5-4-10-14 1-8-5-15v-17l-9-11 1-6-2-6-4-5-3-4v-2l-6-2-5-5-2-8v-4z" fill="#F13907"/>
<path transform="translate(1045,577)" d="m0 0h8l1 1v26l-2 20-4 12-2 3-9 2-29 4-16 6-5 2-17 4-29 3-5 1h-15l-10-1-11-1 5-4 15-10h28l26-3h8l42-6 12-2h2l2-6 3-1 1-4 4-10 2-10v-12l-4-12z" fill="#018148"/>
<path transform="translate(814,1366)" d="m0 0h18l8 5 7 8 3 9v7l-3 9-7 8-7 4-4 1h-14l-7-3-5-4-5-8-1-3v-15l3-7 6-7zm7 11-7 3-3 4-1 3v10l4 6 7 3 7-1 5-3 3-5 1-8-3-8-7-4z" fill="#FBBE10"/>
<path transform="translate(583,468)" d="m0 0 9 2 16 6 23 13 13 13v3l-14 3-15 2h-23l1-6-1-6h-2l-3-7-4-9-3-4v-8z" fill="#049536"/>
<path transform="translate(1262,1383)" d="m0 0h8l3 3v6l-4 5h-7l-3-3-30-1h-143l-1-1v-6l1-1 174-1z" fill="#FABE10"/>
<path transform="translate(676,1366)" d="m0 0 12 1 1 3v15l21 1v-19l2-1 11 1v48l-1 1h-11l-1-1v-17l-22-1v19h-12z" fill="#FBBE10"/>
<path transform="translate(332,1383)" d="m0 0h7l2 1 172 1v8h-150l-22 1-3 3h-6l-4-5 1-7z" fill="#FBBE10"/>
<path transform="translate(632,183)" d="m0 0 5 5 8 16 4 15 3 17 1 11v41l-2 13-5-2-12-12-2-3v-3h4l1-9v-38l2-11-1-11-1-3-1-9-4-15z" fill="#038348"/>
<path transform="translate(702,706)" d="m0 0 7 1 5 3 2 6v10l-3 2-33 1h-37l-18-1-2-2 5-2 7 2-2-4 5-1 11-4 4-3 3-1 11-1 10-2 10-1 12-2z" fill="#0A5753"/>
<path transform="translate(1259,890)" d="m0 0h6l23 12 15 10 7 5 2 3v8l-4 5-6 1-9-3-11-7-19-11-8-5-3-6 1-6 4-5z" fill="#049536"/>
<path transform="translate(280,362)" d="m0 0h7l12 6 20 12 11 7 2 3v7l-4 5-4 2-9-1-28-16-9-6-4-4-1-7 3-5z" fill="#059536"/>
<path transform="translate(1030,1366)" d="m0 0h7l4 10 9 25 3 10v5h-11l-2-6v-4l-19 1-4 9h-11l1-5 10-29 7-15zm1 15-5 10-1 5h11l-2-10-2-5z" fill="#FBBE10"/>
<path transform="translate(889,1366)" d="m0 0h20l9 2 6 7 2 6v7l-3 7-7 6-6 2h-13v12l-1 1h-10v-49zm10 11-1 1v14l1 1h8l6-3 2-3-1-6-4-4z" fill="#FBBE10"/>
<path transform="translate(318,890)" d="m0 0 9 1 5 5v8l-4 5-22 12-19 12h-9l-5-6v-8l4-5 20-11 18-11z" fill="#059536"/>
<path transform="translate(1300,362)" d="m0 0 6 1 5 5 1 7-7 8-16 9-18 10-9 3-8-6-1-2v-7l8-7 24-13 10-6z" fill="#059536"/>
<path transform="translate(1075,535)" d="m0 0 4 1 14 8 3 4-1 4-11 12-13 8-10 3h-201l2-4 5-5 2 1-6 6h26l151-2 22-1v-8l5-5h2l1-14 4-4z" fill="#C8F1A6"/>
<path transform="translate(553,1366)" d="m0 0h29l1 1v9l-1 1h-20v10h15l1 9-1 1h-16v8h20l2 2v8l-1 1h-32v-49z" fill="#FBBE10"/>
<path transform="translate(477,642)" d="m0 0h49l1 13-1 12-2-1-17-1h-22l-3-1-3 2-1 10h-1z" fill="#41B721"/>
<path transform="translate(887,398)" d="m0 0h2v132l-1 9-2 1-2-7-5-1-4-9v-12l2-20 4-26 2-19 2-3-1-15 1-6-1-3v-14l1-5h2z" fill="#037050"/>
<path transform="translate(533,467)" d="m0 0 4 1h-3v7l7 3 7 1 6 2 5 6 2 3v5l-5 5-4 3 3 4-10-2-13-5-10-6-9-8-3-6 1-5 5-3 12-4z" fill="#65BE16"/>
<path transform="translate(594,283)" d="m0 0h3l8 16h-2l3 19 2 6 2 26 2 15v9l-3 4-5 2-11-11-1-5 3-5 1-2v-35l-1-12v-9l-2-10-1-6z" fill="#028249"/>
<path transform="translate(697,652)" d="m0 0h7l11 2 3 2-1 7-5 1-40-1h-62l-35 1-20 1-15 4-5 2v2l-5 4-2 2v-13l9-4 15-2 16-1 59-1 18 1 6-1h11l28-4z" fill="#02794D"/>
<path transform="translate(1032,467)" d="m0 0h14l12 3 12 6 1 5-4 6-8 8-12 6-11 4h-6v-11l-1-2 2-5h2l1-3h2l-3-12z" fill="#047A4D"/>
<path transform="translate(1326,491)" d="m0 0h12l4 5 1 5v13h11l11 1 2 3v11l-1 3-3 1h-18l3-2 10-2 5-3h3l-2-5h-2l-1-3-2-1-16-1-8-3h-2v2h-2l-1 6-3 2h-3v2l-3-1v-2l-5-1-2-5-5 1-5-1 2 9 4 2 9 1 1 4 2 2h-12l-10-1-3-3v-11l5-5h20v-21z" fill="#F13D07"/>
<path transform="translate(773,156)" d="m0 0 4 2 4 13 1 7v31l-2 18-6 23-7 17h-2l-1-6 1-22 2-6 4-29 1-9 1-16-1-21z" fill="#057B4E"/>
<path transform="translate(611,1366)" d="m0 0h38l1 1v10l-2 1h-12v38h-11l-1-1v-36l-13-1-1-1v-10z" fill="#FABE10"/>
<path transform="translate(957 1e3)" d="m0 0 2 1-1 4h-2l-1 3-2-1-2 2-2-1 1 3h-4l-1 2-1 1-5 4-12 4h-3v2l-6 1v2l-4 1v2l-4 1-2 5-5 4-5 2-9 3-5 6h-2v2l-2 2-3 5-6 4h-2l-1 2-1-2-1 5-4 1-1 2-3 3-4 3-7 6-3 6-5 4-2-1 16-20 12-14 7-7 11-9 12-10 24-16 33-15z" fill="#F13E07"/>
<path transform="translate(824,570)" d="m0 0 2 4-7 16-10 19-4 5-14 21-5 8-5 5-3 1-1 3-5 3h-4l-2 5-4 2h-3l2-6 9-13 9-11 14-19 7-9 6-9h3l5-8 2-1v-3h2l2-5z" fill="#63BD16"/>
<path transform="translate(849,1007)" d="m0 0h2l-3 9h-2l-2 4-7 7-3 4h-2l-2 7-3 14-8 11-5 5h-2v-23l1-3 5-4 3-6 1-12 7-9h11l6-3z" fill="#F13507"/>
<path transform="translate(593,407)" d="m0 0 5 4 9 11 13 15 6 8 2 5-4 1h-9l-14-2v-2h-2l-2-5-3-1-2-8-1-15-1-4 2-6z" fill="#067053"/>
<path transform="translate(575,388)" d="m0 0 4 2 14 16-2 9 2 12v7l2 7 4 4v2h2v2l-18-2-2-1-1-10-4-9 1-15-2-12-1-9z" fill="#047A4E"/>
<path transform="translate(393,221)" d="m0 0 7 1 9 7 16 16 1 2v7l-5 5-3 1-8-6-15-14-6-7-1-7z" fill="#FABE10"/>
<path transform="translate(629,360)" d="m0 0 3 1 5 15 8 30 2 17h-3l-11-12-9-10-2-4h4l-1-21 1-12z" fill="#077053"/>
<path transform="translate(1170,1027)" d="m0 0 8 3 11 10 7 8 6 6v7l-5 5-6-1-9-7-8-8-6-5-3-5v-7l3-5z" fill="#FBBE10"/>
<path transform="translate(416,1028)" d="m0 0 6 1 3 3v9l-7 8-5 4-5 6-9 6-6-1-5-5 1-5 7-8 11-11z" fill="#FBBE10"/>
<path transform="translate(1193,221)" d="m0 0 7 2 2 2v7l-7 9-10 9-9 8-6 1-5-6 1-7 7-8 16-15z" fill="#FBBE10"/>
<path transform="translate(385,999)" d="m0 0 4 1 5 4 2 4-6 8-15 15-9 5-4-1-4-6 1-7 18-18z" fill="#FABE10"/>
<path transform="translate(365,251)" d="m0 0 7 3 12 11 5 5 7 8-2 5-4 4-4 1-7-4-5-4v-2l-4-2-7-7-5-7 1-7 3-3z" fill="#FBBE10"/>
<path transform="translate(1200,999)" d="m0 0 7 1 8 6 17 16 1 2v7l-5 5-5-1-6-4-17-16-4-6 1-7z" fill="#FBBE10"/>
<path transform="translate(1222,252)" d="m0 0h6l5 6-1 6-7 8-10 9-7 6-5 1-5-3-2-3 1-7 5-6 10-8 7-7z" fill="#FBBE10"/>
<path transform="translate(1114,860)" d="m0 0 1 4-1 4 4-1 3-1v4h-2l-3 9-3 7-3 9-2 4h-2v3l-2 2-2 1-2 5-3 1-3 3-1 5h-2l-2 3h-2l-2 4-5 6-5 2-8 7h-3l10-10 14-19 8-13 8-16 9-20z" fill="#F13E07"/>
<path transform="translate(965,1367)" d="m0 0h11l1 1v48h-11l-1-1z" fill="#FBBE10"/>
<path transform="translate(750,1367)" d="m0 0h11l1 1v33l-1 15h-11z" fill="#FBBE10"/>
<path transform="translate(443,449)" d="m0 0 4 1 10 11 8 10 2 4v4l-10 3v-2h-3v-2l-6-1-6-2-1-9-1-6-1-7 1-2h3z" fill="#048448"/>
<path transform="translate(777,931)" d="m0 0 5 3v2h6l1 22-1 3h-7l-7-7-7-6-3-4 2-4 1-3 7-1z" fill="#42B721"/>
<path transform="translate(736,1105)" d="m0 0 7 3 3 1 6 7 4 8v5l-2 2h-7l-12-5-7-4v-3l2-2 4-10z" fill="#F13507"/>
<path transform="translate(800,835)" d="m0 0 1 4-7 12-2 3-1 10v101l-4 1-4-5h5l-1-93-4-6-1-5-1-4 9-9 8-7z" fill="#039435"/>
<path transform="translate(1049,469)" d="m0 0 9 1 12 6 1 5-4 6h-3l-1-1h-13l-5-5-1-6 1-2h2v-3z" fill="#056F53"/>
<path transform="translate(1061,574)" d="m0 0 3 1-3 4 2 7-1 13h-2v7l-2 12-3 12h-2v-53l2-2z" fill="#036E51"/>
<path transform="translate(959,1102)" d="m0 0 5 1-3 2-16 6-38 12-24 6h-2l1-3 7-2 10-2 12-6 12-3 11-4 10-2h4v-2l11-1z" fill="#F24508"/>
<path transform="translate(677,906)" d="m0 0 5 2 7 9 15 16 4 4v6h-2v-2h-3v-2l-6-2-4-6-5-5-6-4-4-7-3-8z" fill="#F13B07"/>
<path transform="translate(801,602)" d="m0 0h3l-3 9-5 6v2h-2l-2 4-3 4-2 5-5 5h-2l-2 4-3 3-1 4-2 3h-3v2h-2l-3 3h-2l2-4 6-9 9-11 14-19 7-9z" fill="#0E9937"/>
<path transform="translate(1032,467)" d="m0 0 4 1 2 13 2 9 2 5 2 1v4 2l-8 3h-6v-11l-1-2 2-5h2l1-3h2l-3-12z" fill="#018148"/>
<path transform="translate(225,514)" d="m0 0h15l-4 2h-7v2l-2 1v3l14 7 3 3-5 1h-16l-4-5v-8l4-5z" fill="#097F4D"/>
<path transform="translate(1302,514)" d="m0 0h8l-1 2h-5l2 9 4 2 9 1 1 4 2 2h-12l-10-1-3-3v-11z" fill="#F24207"/>
<path transform="translate(502,642)" d="m0 0h15l4 2-4 5-2 1h-14l-8-1-5-2-1-4z" fill="#029436"/>
<path transform="translate(278,516)" d="m0 0h10l3 5v6l-4 5h-6l-5-7z" fill="#046052"/>
<path transform="translate(780,854)" d="m0 0 3 3 1 5-3 8h-2l-1 3-7 1-2-6 4-6z" fill="#44B720"/>
<path transform="translate(812,826)" d="m0 0 2 1-4 5-8 16-5 7-5 1-1 2 1-6 7-11 3-7z" fill="#047052"/>
<path transform="translate(723,1075)" d="m0 0h3v2l4 1 11 13 7 10-1 2-4-2-5-5-7-6-5-8-2-2z" fill="#F14309"/>
<path transform="translate(652,247)" d="m0 0h1v41l-2 13-5-2-6-6v-2h4l4-1 1-10 1-3 1 1z" fill="#0C8647"/>
<path transform="translate(1359,515)" d="m0 0h6l2 3v11l-1 3-3 1h-18l3-2 10-2 5-3h3l-2-5h-2l-1-3-2-1z" fill="#F24107"/>
<path transform="translate(1093,1026)" d="m0 0 3 1-21 16-14 10h-2l2-4 3-3 5-3h2l1-3h3v-2l5-1v-2l6-4z" fill="#F34808"/>
<path transform="translate(1323,534)" d="m0 0h1l1 12 1 5 4 1 4 2 8-1-3 4-3 1h-9l-4-4z" fill="#F24808"/>
<path transform="translate(1096,711)" d="m0 0 1 4-4 13-5 9h-6l-2-1 2-6 6-3h3v-2h2l1-8z" fill="#108149"/>
<path transform="translate(650,241)" d="m0 0 2 1v36h-1l-3-18 1-16z" fill="#01794D"/>
<path transform="translate(788,446)" d="m0 0h1l-1 14-1 4-5 1-1-8 6-9z" fill="#029436"/>
<path transform="translate(617,439)" d="m0 0h5l2 3-1 4h-2v2h-5l-2-5 1-2h2z" fill="#076254"/>
<path transform="translate(688,917)" d="m0 0 6 5 6 8-5 1-5-7v-4h-2z" fill="#FB5A08"/>
<path transform="translate(747,391)" d="m0 0h23v1l-20 1-2 2-1 17h-1v-20z" fill="#029436"/>
<path transform="translate(1093,1026)" d="m0 0 3 1-17 13h-2l1-3h2v-2l6-4z" fill="#F35709"/>
<path transform="translate(1359,515)" d="m0 0h6l2 3v7l-3-2v-2h-2l-1-3-2-1z" fill="#F34908"/>
<path transform="translate(812,1060)" d="m0 0 7 2-3 5-4 1z" fill="#FB4C06"/>
<path transform="translate(789,958)" d="m0 0 2 3-1 5-4-1-3-4h5z" fill="#139B35"/>
<path transform="translate(1050,577)" d="m0 0 4 1v24h-1l-1-19z" fill="#02794E"/>
<path transform="translate(891,1123)" d="m0 0 4 1v2l-14 3 1-3 7-2z" fill="#F35609"/>
<path transform="translate(828,698)" d="m0 0 3 1-6 4-6 1v2l-5 2 1-3z" fill="#1D9F32"/>
<path transform="translate(1076,730)" d="m0 0h5v4l-3 1-7-3v-1z" fill="#0F6658"/>
<path transform="translate(1096,711)" d="m0 0 1 4-4 13-3 4-1-4 2-3h2l1-8z" fill="#3A9A52"/>
<path transform="translate(925,808)" d="m0 0h11l5 1-4 2-10-1z" fill="#F13507"/>
<path transform="translate(844,1086)" d="m0 0 2 1-2 5-5 4-2-1z" fill="#F35008"/>
<path transform="translate(813,586)" d="m0 0 2 2-6 8-2-1 2-5z" fill="#21A23E"/>
<path transform="translate(1064,1046)" d="m0 0h4v2l-7 5h-2l2-4z" fill="#F24A08"/>
</svg>
